<?xml version="1.0" standalone="no"?>
<!DOCTYPE svg PUBLIC "-//W3C//DTD SVG 20010904//EN"
 "http://www.w3.org/TR/2001/REC-SVG-20010904/DTD/svg10.dtd">
<svg version="1.0" xmlns="http://www.w3.org/2000/svg"
 width="256.000000pt" height="256.000000pt" viewBox="0 0 256.000000 256.000000"
 preserveAspectRatio="xMidYMid meet">
<metadata>
Created by potrace 1.11, written by Peter Selinger 2001-2013
</metadata>
<g transform="translate(0.000000,256.000000) scale(0.100000,-0.100000)"
fill="#000000" stroke="none">
<path d="M1694 2362 c-176 -173 -517 -505 -891 -867 l-155 -150 185 -138 185
-138 -65 -187 c-35 -103 -73 -212 -83 -242 -32 -97 -198 -574 -209 -602 -6
-16 -6 -28 -2 -28 5 0 11 4 13 9 2 5 48 58 104 118 56 59 112 120 125 134 43
48 193 212 225 246 18 18 72 77 120 131 83 90 205 223 229 248 5 6 51 55 100
109 50 54 99 108 110 119 11 12 64 69 118 128 l98 107 -188 141 c-103 78 -189
145 -191 150 -3 9 331 811 363 873 8 15 11 27 7 27 -4 0 -93 -85 -198 -188z"/>
</g>
</svg>
